<svg xmlns="http://www.w3.org/2000/svg" viewBox="0 0 500 340" font-family="'Segoe UI',Arial,sans-serif">
  <defs>
    <linearGradient id="hdr" x1="0" y1="0" x2="500" y2="0" gradientUnits="userSpaceOnUse">
      <stop offset="0%" stop-color="#1a5276"/><stop offset="100%" stop-color="#2980b9"/>
    </linearGradient>
  </defs>
  <rect width="500" height="340" rx="10" fill="#f8f9fa" stroke="#dee2e6"/>
  <rect width="500" height="44" rx="10" fill="url(#hdr)"/>
  <rect y="34" width="500" height="10" fill="url(#hdr)"/>
  <text x="250" y="29" text-anchor="middle" fill="white" font-size="16" font-weight="bold">CBC &amp; COAGULATION SCREEN</text>
  <text x="15" y="64" fill="#555" font-size="11">Patient: 72M | Acute neurological deficit | Priority: URGENT</text>
  <line x1="15" y1="72" x2="485" y2="72" stroke="#dee2e6"/>
  <text x="20" y="92" fill="#666" font-size="10" font-weight="bold">ANALYTE</text>
  <text x="260" y="92" fill="#666" font-size="10" font-weight="bold" text-anchor="end">RESULT</text>
  <text x="340" y="92" fill="#666" font-size="10" font-weight="bold" text-anchor="end">REF RANGE</text>
  <text x="400" y="92" fill="#666" font-size="10" font-weight="bold">STATUS</text>
  <!-- WBC -->
  <rect x="15" y="98" width="470" height="24" rx="3" fill="#eafaf1"/>
  <text x="20" y="115" fill="#333" font-size="12">White Cell Count</text>
  <text x="260" y="115" fill="#27ae60" font-size="13" font-weight="bold" text-anchor="end">9.4 ×10⁹/L</text>
  <text x="340" y="115" fill="#666" font-size="11" text-anchor="end">4.0–11.0</text>
  <rect x="370" y="102" width="60" height="17" rx="8" fill="#27ae60"/>
  <text x="400" y="114" fill="white" font-size="9" font-weight="bold" text-anchor="middle">NORMAL</text>
  <!-- Haemoglobin -->
  <rect x="15" y="126" width="470" height="24" rx="3" fill="#eafaf1"/>
  <text x="20" y="143" fill="#333" font-size="12">Haemoglobin</text>
  <text x="260" y="143" fill="#27ae60" font-size="13" font-weight="bold" text-anchor="end">14.2 g/dL</text>
  <text x="340" y="143" fill="#666" font-size="11" text-anchor="end">13.0–17.0</text>
  <rect x="370" y="130" width="60" height="17" rx="8" fill="#27ae60"/>
  <text x="400" y="142" fill="white" font-size="9" font-weight="bold" text-anchor="middle">NORMAL</text>
  <!-- Platelets -->
  <rect x="15" y="154" width="470" height="24" rx="3" fill="#eafaf1"/>
  <text x="20" y="171" fill="#333" font-size="12">Platelets</text>
  <text x="260" y="171" fill="#27ae60" font-size="13" font-weight="bold" text-anchor="end">224 ×10⁹/L</text>
  <text x="340" y="171" fill="#666" font-size="11" text-anchor="end">150–400</text>
  <rect x="370" y="158" width="60" height="17" rx="8" fill="#27ae60"/>
  <text x="400" y="170" fill="white" font-size="9" font-weight="bold" text-anchor="middle">NORMAL</text>
  <!-- INR - KEY RESULT -->
  <rect x="15" y="182" width="470" height="24" rx="3" fill="#fef9e7"/>
  <text x="20" y="199" fill="#333" font-size="12" font-weight="bold">INR</text>
  <text x="260" y="199" fill="#d68910" font-size="13" font-weight="bold" text-anchor="end">1.8</text>
  <text x="340" y="199" fill="#666" font-size="11" text-anchor="end">0.9–1.1</text>
  <rect x="370" y="186" width="60" height="17" rx="8" fill="#d68910"/>
  <text x="400" y="198" fill="white" font-size="9" font-weight="bold" text-anchor="middle">HIGH</text>
  <!-- PT -->
  <rect x="15" y="210" width="470" height="24" rx="3" fill="#fef9e7"/>
  <text x="20" y="227" fill="#333" font-size="12">Prothrombin Time</text>
  <text x="260" y="227" fill="#d68910" font-size="13" font-weight="bold" text-anchor="end">22 sec</text>
  <text x="340" y="227" fill="#666" font-size="11" text-anchor="end">11–15</text>
  <rect x="370" y="214" width="60" height="17" rx="8" fill="#d68910"/>
  <text x="400" y="226" fill="white" font-size="9" font-weight="bold" text-anchor="middle">HIGH</text>
  <!-- APTT -->
  <rect x="15" y="238" width="470" height="24" rx="3" fill="#eafaf1"/>
  <text x="20" y="255" fill="#333" font-size="12">APTT</text>
  <text x="260" y="255" fill="#27ae60" font-size="13" font-weight="bold" text-anchor="end">38 sec</text>
  <text x="340" y="255" fill="#666" font-size="11" text-anchor="end">25–40</text>
  <rect x="370" y="242" width="60" height="17" rx="8" fill="#27ae60"/>
  <text x="400" y="254" fill="white" font-size="9" font-weight="bold" text-anchor="middle">NORMAL</text>
  <!-- Interpretation -->
  <rect x="15" y="275" width="470" height="50" rx="6" fill="#fef5e7" stroke="#d68910" stroke-width="1.5"/>
  <text x="30" y="295" fill="#d68910" font-size="11" font-weight="bold">ℹ INTERPRETATION</text>
  <text x="30" y="313" fill="#666" font-size="10.5">Patient anticoagulated (warfarin). INR 1.8 — within range for thrombolysis consideration.</text>
</svg>