<svg xmlns="http://www.w3.org/2000/svg" viewBox="0 0 500 310" font-family="'Segoe UI',Arial,sans-serif">
  <defs>
    <linearGradient id="hdr" x1="0" y1="0" x2="500" y2="0" gradientUnits="userSpaceOnUse">
      <stop offset="0%" stop-color="#1a5276"/><stop offset="100%" stop-color="#2980b9"/>
    </linearGradient>
  </defs>
  <rect width="500" height="310" rx="10" fill="#f8f9fa" stroke="#dee2e6"/>
  <rect width="500" height="44" rx="10" fill="url(#hdr)"/>
  <rect y="34" width="500" height="10" fill="url(#hdr)"/>
  <text x="250" y="29" text-anchor="middle" fill="white" font-size="16" font-weight="bold">LIVER FUNCTION TESTS</text>
  <text x="15" y="64" fill="#555" font-size="11">Patient: 25M | Found unresponsive | Priority: URGENT</text>
  <line x1="15" y1="72" x2="485" y2="72" stroke="#dee2e6"/>
  <text x="20" y="92" fill="#666" font-size="10" font-weight="bold">ANALYTE</text>
  <text x="260" y="92" fill="#666" font-size="10" font-weight="bold" text-anchor="end">RESULT</text>
  <text x="340" y="92" fill="#666" font-size="10" font-weight="bold" text-anchor="end">REF RANGE</text>
  <text x="400" y="92" fill="#666" font-size="10" font-weight="bold">STATUS</text>
  <!-- ALT -->
  <rect x="15" y="98" width="470" height="24" rx="3" fill="#fef9e7"/>
  <text x="20" y="115" fill="#333" font-size="12">ALT</text>
  <text x="260" y="115" fill="#d68910" font-size="13" font-weight="bold" text-anchor="end">89 U/L</text>
  <text x="340" y="115" fill="#666" font-size="11" text-anchor="end">7–56</text>
  <rect x="370" y="102" width="60" height="17" rx="8" fill="#d68910"/>
  <text x="400" y="114" fill="white" font-size="9" font-weight="bold" text-anchor="middle">HIGH</text>
  <!-- AST -->
  <rect x="15" y="126" width="470" height="24" rx="3" fill="#fef9e7"/>
  <text x="20" y="143" fill="#333" font-size="12">AST</text>
  <text x="260" y="143" fill="#d68910" font-size="13" font-weight="bold" text-anchor="end">112 U/L</text>
  <text x="340" y="143" fill="#666" font-size="11" text-anchor="end">10–40</text>
  <rect x="370" y="130" width="60" height="17" rx="8" fill="#d68910"/>
  <text x="400" y="142" fill="white" font-size="9" font-weight="bold" text-anchor="middle">HIGH</text>
  <!-- GGT -->
  <rect x="15" y="154" width="470" height="24" rx="3" fill="#fef9e7"/>
  <text x="20" y="171" fill="#333" font-size="12">GGT</text>
  <text x="260" y="171" fill="#d68910" font-size="13" font-weight="bold" text-anchor="end">128 U/L</text>
  <text x="340" y="171" fill="#666" font-size="11" text-anchor="end">9–48</text>
  <rect x="370" y="158" width="60" height="17" rx="8" fill="#d68910"/>
  <text x="400" y="170" fill="white" font-size="9" font-weight="bold" text-anchor="middle">HIGH</text>
  <!-- Bilirubin -->
  <rect x="15" y="182" width="470" height="24" rx="3" fill="#fef9e7"/>
  <text x="20" y="199" fill="#333" font-size="12">Bilirubin (total)</text>
  <text x="260" y="199" fill="#d68910" font-size="13" font-weight="bold" text-anchor="end">22 µmol/L</text>
  <text x="340" y="199" fill="#666" font-size="11" text-anchor="end">5–17</text>
  <rect x="370" y="186" width="60" height="17" rx="8" fill="#d68910"/>
  <text x="400" y="198" fill="white" font-size="9" font-weight="bold" text-anchor="middle">HIGH</text>
  <!-- Albumin -->
  <rect x="15" y="210" width="470" height="24" rx="3" fill="#fef9e7"/>
  <text x="20" y="227" fill="#333" font-size="12">Albumin</text>
  <text x="260" y="227" fill="#d68910" font-size="13" font-weight="bold" text-anchor="end">32 g/L</text>
  <text x="340" y="227" fill="#666" font-size="11" text-anchor="end">35–50</text>
  <rect x="370" y="214" width="60" height="17" rx="8" fill="#d68910"/>
  <text x="400" y="226" fill="white" font-size="9" font-weight="bold" text-anchor="middle">LOW</text>
  <!-- Interpretation -->
  <rect x="15" y="248" width="470" height="50" rx="6" fill="#fef5e7" stroke="#d68910" stroke-width="1.5"/>
  <text x="30" y="268" fill="#d68910" font-size="11" font-weight="bold">ℹ INTERPRETATION</text>
  <text x="30" y="286" fill="#666" font-size="10.5">Hepatocellular pattern (AST > ALT). Chronic liver injury consistent with substance use.</text>
</svg>